<svg xmlns="http://www.w3.org/2000/svg" xmlns:xlink="http://www.w3.org/1999/xlink" width="75" viewBox="0 0 75 30" height="30" version="1.0"><defs><g id="b"><path d="M 5.4375 -1.453125 C 6.65625 -1.453125 7.503906 -2.0625 7.984375 -3.28125 L 9.734375 -2.625 C 9.359375 -1.6875 8.800781 -0.988281 8.0625 -0.53125 C 7.332031 -0.0820312 6.457031 0.140625 5.4375 0.140625 C 3.882812 0.140625 2.6875 -0.296875 1.84375 -1.171875 C 1 -2.054688 0.578125 -3.285156 0.578125 -4.859375 C 0.578125 -6.441406 0.984375 -7.65625 1.796875 -8.5 C 2.617188 -9.351562 3.804688 -9.78125 5.359375 -9.78125 C 6.484375 -9.78125 7.398438 -9.550781 8.109375 -9.09375 C 8.828125 -8.644531 9.328125 -7.984375 9.609375 -7.109375 L 7.828125 -6.625 C 7.679688 -7.101562 7.390625 -7.484375 6.953125 -7.765625 C 6.515625 -8.054688 5.992188 -8.203125 5.390625 -8.203125 C 4.484375 -8.203125 3.789062 -7.914062 3.3125 -7.34375 C 2.84375 -6.78125 2.609375 -5.953125 2.609375 -4.859375 C 2.609375 -3.753906 2.847656 -2.910156 3.328125 -2.328125 C 3.816406 -1.742188 4.519531 -1.453125 5.4375 -1.453125 Z M 5.4375 -1.453125"/></g><g id="c"><path d="M 2.6875 0.140625 C 1.96875 0.140625 1.40625 -0.0507812 1 -0.4375 C 0.601562 -0.832031 0.40625 -1.382812 0.40625 -2.09375 C 0.40625 -2.863281 0.65625 -3.445312 1.15625 -3.84375 C 1.65625 -4.25 2.378906 -4.457031 3.328125 -4.46875 L 4.921875 -4.484375 L 4.921875 -4.859375 C 4.921875 -5.347656 4.835938 -5.707031 4.671875 -5.9375 C 4.503906 -6.175781 4.226562 -6.296875 3.84375 -6.296875 C 3.488281 -6.296875 3.226562 -6.210938 3.0625 -6.046875 C 2.894531 -5.890625 2.789062 -5.625 2.75 -5.25 L 0.75 -5.34375 C 0.875 -6.0625 1.203125 -6.609375 1.734375 -6.984375 C 2.265625 -7.359375 2.992188 -7.546875 3.921875 -7.546875 C 4.859375 -7.546875 5.578125 -7.3125 6.078125 -6.84375 C 6.585938 -6.382812 6.84375 -5.734375 6.84375 -4.890625 L 6.84375 -2.1875 C 6.84375 -1.769531 6.890625 -1.484375 6.984375 -1.328125 C 7.078125 -1.171875 7.234375 -1.09375 7.453125 -1.09375 C 7.597656 -1.09375 7.742188 -1.109375 7.890625 -1.140625 L 7.890625 -0.09375 C 7.773438 -0.0703125 7.671875 -0.046875 7.578125 -0.015625 C 7.484375 0.00390625 7.390625 0.0195312 7.296875 0.03125 C 7.210938 0.0507812 7.117188 0.0625 7.015625 0.0625 C 6.910156 0.0703125 6.789062 0.078125 6.65625 0.078125 C 6.164062 0.078125 5.804688 -0.0351562 5.578125 -0.265625 C 5.347656 -0.503906 5.210938 -0.859375 5.171875 -1.328125 L 5.125 -1.328125 C 4.582031 -0.347656 3.769531 0.140625 2.6875 0.140625 Z M 4.921875 -3.421875 L 3.9375 -3.421875 C 3.488281 -3.398438 3.171875 -3.347656 2.984375 -3.265625 C 2.796875 -3.179688 2.65625 -3.054688 2.5625 -2.890625 C 2.46875 -2.734375 2.421875 -2.519531 2.421875 -2.25 C 2.421875 -1.894531 2.5 -1.628906 2.65625 -1.453125 C 2.820312 -1.285156 3.039062 -1.203125 3.3125 -1.203125 C 3.601562 -1.203125 3.875 -1.285156 4.125 -1.453125 C 4.375 -1.617188 4.566406 -1.84375 4.703125 -2.125 C 4.847656 -2.414062 4.921875 -2.722656 4.921875 -3.046875 Z M 4.921875 -3.421875"/></g><g id="d"><path d="M 0.984375 0 L 0.984375 -5.671875 C 0.984375 -6.078125 0.972656 -6.414062 0.953125 -6.6875 C 0.941406 -6.957031 0.929688 -7.195312 0.921875 -7.40625 L 2.765625 -7.40625 C 2.773438 -7.320312 2.789062 -7.070312 2.8125 -6.65625 C 2.832031 -6.238281 2.84375 -5.960938 2.84375 -5.828125 L 2.875 -5.828125 C 3.0625 -6.347656 3.226562 -6.710938 3.375 -6.921875 C 3.519531 -7.128906 3.691406 -7.285156 3.890625 -7.390625 C 4.085938 -7.492188 4.335938 -7.546875 4.640625 -7.546875 C 4.890625 -7.546875 5.085938 -7.515625 5.234375 -7.453125 L 5.234375 -5.84375 C 4.929688 -5.90625 4.660156 -5.9375 4.421875 -5.9375 C 3.941406 -5.9375 3.566406 -5.742188 3.296875 -5.359375 C 3.035156 -4.972656 2.90625 -4.398438 2.90625 -3.640625 L 2.90625 0 Z M 0.984375 0"/></g><g id="e"><path d="M 7.21875 -2.15625 C 7.21875 -1.445312 6.925781 -0.882812 6.34375 -0.46875 C 5.757812 -0.0625 4.945312 0.140625 3.90625 0.140625 C 2.882812 0.140625 2.101562 -0.0195312 1.5625 -0.34375 C 1.03125 -0.664062 0.675781 -1.164062 0.5 -1.84375 L 2.1875 -2.09375 C 2.28125 -1.75 2.441406 -1.503906 2.671875 -1.359375 C 2.910156 -1.210938 3.320312 -1.140625 3.90625 -1.140625 C 4.445312 -1.140625 4.835938 -1.207031 5.078125 -1.34375 C 5.328125 -1.476562 5.453125 -1.691406 5.453125 -1.984375 C 5.453125 -2.222656 5.351562 -2.410156 5.15625 -2.546875 C 4.957031 -2.691406 4.617188 -2.8125 4.140625 -2.90625 C 3.054688 -3.113281 2.320312 -3.3125 1.9375 -3.5 C 1.5625 -3.6875 1.273438 -3.925781 1.078125 -4.21875 C 0.878906 -4.507812 0.78125 -4.867188 0.78125 -5.296875 C 0.78125 -6.003906 1.050781 -6.554688 1.59375 -6.953125 C 2.144531 -7.347656 2.921875 -7.546875 3.921875 -7.546875 C 4.796875 -7.546875 5.5 -7.375 6.03125 -7.03125 C 6.570312 -6.6875 6.910156 -6.191406 7.046875 -5.546875 L 5.34375 -5.375 C 5.289062 -5.675781 5.15625 -5.898438 4.9375 -6.046875 C 4.726562 -6.191406 4.390625 -6.265625 3.921875 -6.265625 C 3.460938 -6.265625 3.117188 -6.207031 2.890625 -6.09375 C 2.660156 -5.976562 2.546875 -5.785156 2.546875 -5.515625 C 2.546875 -5.296875 2.632812 -5.125 2.8125 -5 C 2.988281 -4.875 3.285156 -4.769531 3.703125 -4.6875 C 4.285156 -4.570312 4.800781 -4.453125 5.25 -4.328125 C 5.695312 -4.203125 6.054688 -4.050781 6.328125 -3.875 C 6.597656 -3.695312 6.8125 -3.472656 6.96875 -3.203125 C 7.132812 -2.929688 7.21875 -2.582031 7.21875 -2.15625 Z M 7.21875 -2.15625"/></g><g id="f"><path d="M 4.015625 0.140625 C 2.898438 0.140625 2.039062 -0.1875 1.4375 -0.84375 C 0.84375 -1.507812 0.546875 -2.472656 0.546875 -3.734375 C 0.546875 -4.960938 0.847656 -5.90625 1.453125 -6.5625 C 2.066406 -7.21875 2.925781 -7.546875 4.03125 -7.546875 C 5.09375 -7.546875 5.90625 -7.191406 6.46875 -6.484375 C 7.03125 -5.773438 7.3125 -4.742188 7.3125 -3.390625 L 7.3125 -3.328125 L 2.5625 -3.328125 C 2.5625 -2.609375 2.691406 -2.066406 2.953125 -1.703125 C 3.222656 -1.335938 3.609375 -1.15625 4.109375 -1.15625 C 4.785156 -1.15625 5.210938 -1.445312 5.390625 -2.03125 L 7.203125 -1.875 C 6.679688 -0.53125 5.617188 0.140625 4.015625 0.140625 Z M 4.015625 -6.328125 C 3.554688 -6.328125 3.203125 -6.171875 2.953125 -5.859375 C 2.710938 -5.546875 2.585938 -5.101562 2.578125 -4.53125 L 5.453125 -4.53125 C 5.421875 -5.132812 5.273438 -5.582031 5.015625 -5.875 C 4.765625 -6.175781 4.429688 -6.328125 4.015625 -6.328125 Z M 4.015625 -6.328125"/></g><g id="g"><path d="M 5.34375 0 L 5.34375 -4.15625 C 5.34375 -5.457031 4.96875 -6.109375 4.21875 -6.109375 C 3.832031 -6.109375 3.515625 -5.90625 3.265625 -5.5 C 3.023438 -5.101562 2.90625 -4.59375 2.90625 -3.96875 L 2.90625 0 L 0.984375 0 L 0.984375 -5.75 C 0.984375 -6.144531 0.972656 -6.46875 0.953125 -6.71875 C 0.941406 -6.976562 0.929688 -7.207031 0.921875 -7.40625 L 2.765625 -7.40625 C 2.773438 -7.320312 2.789062 -7.085938 2.8125 -6.703125 C 2.832031 -6.328125 2.84375 -6.070312 2.84375 -5.9375 L 2.875 -5.9375 C 3.113281 -6.5 3.410156 -6.90625 3.765625 -7.15625 C 4.117188 -7.414062 4.539062 -7.546875 5.03125 -7.546875 C 6.164062 -7.546875 6.851562 -7.007812 7.09375 -5.9375 L 7.125 -5.9375 C 7.375 -6.507812 7.675781 -6.921875 8.03125 -7.171875 C 8.382812 -7.421875 8.832031 -7.546875 9.375 -7.546875 C 10.09375 -7.546875 10.640625 -7.300781 11.015625 -6.8125 C 11.398438 -6.320312 11.59375 -5.617188 11.59375 -4.703125 L 11.59375 0 L 9.6875 0 L 9.6875 -4.15625 C 9.6875 -5.457031 9.3125 -6.109375 8.5625 -6.109375 C 8.1875 -6.109375 7.878906 -5.925781 7.640625 -5.5625 C 7.398438 -5.195312 7.269531 -4.695312 7.25 -4.0625 L 7.25 0 Z M 5.34375 0"/></g><g id="h"><path d="M 7.984375 -3.734375 C 7.984375 -2.503906 7.738281 -1.550781 7.25 -0.875 C 6.757812 -0.195312 6.054688 0.140625 5.140625 0.140625 C 4.617188 0.140625 4.164062 0.0234375 3.78125 -0.203125 C 3.394531 -0.429688 3.101562 -0.757812 2.90625 -1.1875 L 2.890625 -1.1875 C 2.890625 -1.03125 2.878906 -0.8125 2.859375 -0.53125 C 2.835938 -0.25 2.816406 -0.0703125 2.796875 0 L 0.921875 0 C 0.960938 -0.425781 0.984375 -0.988281 0.984375 -1.6875 L 0.984375 -10.15625 L 2.90625 -10.15625 L 2.90625 -7.328125 L 2.875 -6.125 L 2.90625 -6.125 C 3.332031 -7.070312 4.117188 -7.546875 5.265625 -7.546875 C 6.140625 -7.546875 6.8125 -7.210938 7.28125 -6.546875 C 7.75 -5.878906 7.984375 -4.941406 7.984375 -3.734375 Z M 5.984375 -3.734375 C 5.984375 -4.566406 5.859375 -5.1875 5.609375 -5.59375 C 5.359375 -6 4.976562 -6.203125 4.46875 -6.203125 C 3.945312 -6.203125 3.550781 -5.984375 3.28125 -5.546875 C 3.007812 -5.117188 2.875 -4.492188 2.875 -3.671875 C 2.875 -2.878906 3.003906 -2.265625 3.265625 -1.828125 C 3.535156 -1.390625 3.929688 -1.171875 4.453125 -1.171875 C 5.472656 -1.171875 5.984375 -2.023438 5.984375 -3.734375 Z M 5.984375 -3.734375"/></g><clipPath id="a"><path d="M 1.644531 2.902344 L 73.5 2.902344 L 73.5 15.242188 L 1.644531 15.242188 Z M 1.644531 2.902344"/></clipPath></defs><g clip-path="url(#a)"><path fill="#E76F51" d="M 5.109375 9.644531 C 5.625 9.285156 5.890625 8.949219 5.890625 8.589844 C 5.890625 8.164062 5.625 7.804688 5.289062 7.535156 C 5.109375 7.355469 4.417969 7.105469 4.863281 6.410156 C 8.664062 7.375 20.730469 2.925781 31.238281 2.925781 C 37.828125 2.925781 44.15625 4.050781 50.503906 6.679688 C 54.503906 6.679688 69.945312 8.34375 73.5 14.363281 C 73.320312 14.542969 73.074219 14.972656 72.984375 15.242188 L 72.113281 15.242188 C 72.203125 14.972656 72.382812 14.632812 72.539062 14.363281 C 70.28125 10.882812 54.144531 8.074219 49.71875 8.074219 C 43.371094 5.195312 36.957031 4.320312 31.238281 4.320312 C 20.128906 4.320312 12.328125 7.984375 6.25 7.554688 C 6.25 7.984375 6.941406 8.433594 6.941406 9.128906 C 6.941406 9.734375 6.675781 10.34375 6.25 10.882812 C 4.863281 10.859375 2.761719 12.183594 2.761719 15.21875 L 1.644531 15.21875 C 1.644531 13.734375 1.644531 11.308594 5.109375 9.644531 Z M 5.109375 9.644531"/></g><g fill="#E76F51"><use x="3.201" y="22.05" xmlns:xlink="http://www.w3.org/1999/xlink" xlink:href="#b" xlink:type="simple" xlink:actuate="onLoad" xlink:show="embed"/></g><g fill="#E76F51"><use x="13.316" y="22.05" xmlns:xlink="http://www.w3.org/1999/xlink" xlink:href="#c" xlink:type="simple" xlink:actuate="onLoad" xlink:show="embed"/></g><g fill="#E76F51"><use x="21.105" y="22.05" xmlns:xlink="http://www.w3.org/1999/xlink" xlink:href="#d" xlink:type="simple" xlink:actuate="onLoad" xlink:show="embed"/></g><g fill="#E76F51"><use x="26.556" y="22.05" xmlns:xlink="http://www.w3.org/1999/xlink" xlink:href="#e" xlink:type="simple" xlink:actuate="onLoad" xlink:show="embed"/></g><g fill="#E76F51"><use x="34.345" y="22.05" xmlns:xlink="http://www.w3.org/1999/xlink" xlink:href="#f" xlink:type="simple" xlink:actuate="onLoad" xlink:show="embed"/></g><g fill="#E76F51"><use x="42.134" y="22.05" xmlns:xlink="http://www.w3.org/1999/xlink" xlink:href="#g" xlink:type="simple" xlink:actuate="onLoad" xlink:show="embed"/></g><g fill="#E76F51"><use x="54.588" y="22.05" xmlns:xlink="http://www.w3.org/1999/xlink" xlink:href="#h" xlink:type="simple" xlink:actuate="onLoad" xlink:show="embed"/></g><g fill="#E76F51"><use x="63.143" y="22.05" xmlns:xlink="http://www.w3.org/1999/xlink" xlink:href="#c" xlink:type="simple" xlink:actuate="onLoad" xlink:show="embed"/></g></svg>