<?xml version="1.0" standalone="no"?>
<!DOCTYPE svg PUBLIC "-//W3C//DTD SVG 20010904//EN"
 "http://www.w3.org/TR/2001/REC-SVG-20010904/DTD/svg10.dtd">
<svg version="1.0" xmlns="http://www.w3.org/2000/svg"
 width="1500.000000pt" height="1500.000000pt" viewBox="0 0 1500.000000 1500.000000"
 preserveAspectRatio="xMidYMid meet">
<metadata>
Created by potrace 1.14, written by Peter Selinger 2001-2017
</metadata>
<g transform="translate(0.000000,1500.000000) scale(0.100000,-0.100000)"
fill="#000000" stroke="none">
<path d="M1 11268 c1 -2053 5 -3705 10 -3670 48 369 267 654 656 851 240 121
283 292 111 443 -111 98 -127 115 -133 141 -8 31 -2 64 18 91 13 17 19 18 79
7 35 -6 128 -11 205 -11 326 0 717 60 1724 265 1967 401 2735 496 3811 474
1255 -27 2446 -266 3613 -726 l100 -40 245 -12 c1052 -52 2280 -285 3120 -593
299 -110 649 -281 869 -426 197 -129 411 -328 519 -481 l52 -75 0 3747 0 3747
-7500 0 -7500 0 1 -3732z"/>
<path d="M5765 9569 c-580 -21 -1251 -100 -1940 -229 -238 -44 -708 -140
-1110 -225 -693 -147 -1131 -208 -1512 -209 -164 -1 -243 -4 -243 -12 0 -10
27 -57 98 -169 18 -27 36 -71 40 -96 19 -99 -19 -233 -97 -348 -38 -56 -45
-61 -79 -61 -109 -1 -268 -69 -386 -166 -169 -139 -281 -375 -301 -632 l-8
-92 -113 0 -114 0 0 -3665 0 -3665 7500 0 7500 0 0 3750 c0 2063 -2 3750 -4
3750 -6 0 -79 -120 -94 -152 -11 -28 -13 -28 -102 -28 l-90 0 15 37 c9 20 29
61 45 92 l30 54 -36 44 c-285 347 -1348 727 -2834 1013 -479 92 -749 134
-1325 205 -104 13 -408 35 -481 35 -79 0 -88 3 -250 71 -684 288 -1381 481
-2169 598 -384 58 -723 87 -1175 101 -330 11 -460 10 -765 -1z m6113 -2331
c-3 -311 -1 -427 6 -414 95 162 175 226 333 267 245 62 483 -19 608 -207 107
-161 158 -428 136 -707 -36 -441 -225 -683 -552 -704 -214 -14 -393 63 -490
212 l-44 67 -2 -44 c-2 -24 -5 -80 -9 -125 l-6 -83 -205 0 c-183 0 -204 2
-199 16 3 9 6 497 6 1085 l0 1069 211 0 212 0 -5 -432z m-10174 322 c183 -45
294 -108 413 -234 77 -81 122 -151 162 -253 l21 -53 -53 -14 c-207 -59 -309
-86 -320 -86 -8 0 -19 17 -26 38 -30 89 -133 191 -246 242 -82 37 -148 50
-263 50 -304 -1 -484 -139 -564 -435 -18 -68 -21 -108 -22 -270 0 -164 3 -202
21 -277 57 -226 182 -373 367 -431 103 -32 312 -32 403 1 136 48 239 141 312
281 23 45 44 81 45 81 11 0 353 -133 360 -141 24 -23 -102 -228 -202 -327
-164 -165 -377 -248 -662 -259 -556 -22 -935 242 -1050 730 -44 187 -46 461
-5 656 81 388 336 641 717 712 167 31 442 26 592 -11z m3459 -455 l37 -6 0
-176 0 -175 -27 6 c-16 3 -62 9 -103 12 -147 13 -247 -42 -311 -171 -52 -107
-58 -172 -59 -657 l0 -438 -205 0 -205 0 0 653 c0 358 -3 716 -7 795 l-6 142
191 0 c119 0 193 -4 197 -10 5 -8 21 -215 25 -320 0 -8 18 26 39 76 45 107 62
136 110 187 48 52 103 79 176 87 60 6 78 6 148 -5z m1188 -20 c201 -51 362
-199 395 -362 6 -28 3 -33 -17 -37 -26 -6 -300 -36 -324 -36 -8 0 -19 17 -26
39 -13 43 -56 94 -97 115 -94 48 -317 47 -410 -2 -53 -27 -74 -61 -75 -119 -1
-61 27 -104 85 -134 23 -12 123 -39 222 -60 197 -43 366 -93 448 -135 160 -80
238 -209 238 -394 0 -182 -88 -317 -262 -403 -108 -53 -218 -77 -389 -84 -432
-17 -677 102 -774 376 -17 49 -35 41 188 75 l158 23 23 -51 c44 -99 124 -142
286 -153 102 -7 249 11 299 37 20 10 47 30 61 45 22 23 25 36 25 95 0 59 -3
72 -25 95 -49 52 -127 80 -370 131 -437 91 -591 219 -591 494 0 223 134 376
390 445 129 35 406 35 542 0z m4432 -5 c118 -44 214 -165 259 -327 21 -75 22
-98 26 -665 l3 -588 -205 0 -206 0 0 488 c0 567 -6 627 -70 724 -53 79 -164
111 -254 74 -49 -20 -114 -90 -142 -151 -49 -106 -54 -169 -54 -671 l0 -464
-205 0 -205 0 0 483 c0 586 -9 662 -89 750 -45 50 -85 67 -156 67 -127 0 -222
-104 -260 -288 -12 -52 -15 -169 -15 -539 l0 -473 -204 0 -204 0 -5 773 c-3
424 -7 781 -9 792 -3 19 3 20 186 23 104 1 193 -1 197 -5 5 -5 11 -60 14 -123
3 -63 8 -130 11 -149 l6 -34 38 70 c59 106 128 176 218 220 69 35 83 38 177
41 167 7 262 -24 350 -113 50 -50 96 -130 109 -192 4 -18 11 -33 15 -33 4 0
21 28 38 63 38 78 102 159 154 197 118 85 330 107 482 50z m-7305 7 c136 -39
251 -118 314 -217 16 -25 40 -81 55 -125 26 -80 26 -81 32 -500 7 -465 7 -465
71 -498 26 -14 49 -17 93 -14 l58 5 -3 -111 -3 -111 -85 -19 c-114 -24 -266
-20 -330 10 -83 37 -142 123 -156 226 -4 26 -10 47 -13 47 -4 0 -18 -19 -31
-42 -33 -59 -146 -169 -207 -201 -117 -62 -304 -84 -441 -52 -215 51 -332 213
-332 460 0 207 81 349 243 428 118 57 176 67 460 80 l257 11 0 86 c0 171 -57
265 -174 290 -145 30 -251 -31 -278 -161 l-12 -60 -56 5 c-30 3 -126 8 -212
12 -126 5 -158 9 -158 21 0 25 41 137 67 182 77 132 216 220 408 257 91 17
358 12 433 -9z m4491 3 c277 -67 444 -276 496 -620 8 -52 15 -132 15 -177 l0
-83 -505 0 -505 0 0 -54 c0 -176 77 -327 195 -382 57 -27 178 -33 247 -12 52
15 122 78 142 128 19 47 2 45 226 25 91 -8 168 -15 172 -15 4 0 -3 -22 -15
-48 -84 -181 -231 -303 -425 -353 -42 -10 -125 -22 -186 -25 -394 -22 -669
164 -756 511 -62 247 -38 581 54 763 38 75 111 168 168 213 69 55 195 114 283
132 105 23 292 21 394 -3z m6120 10 c233 -38 388 -168 448 -377 13 -48 17
-130 22 -478 5 -380 8 -423 24 -453 25 -45 76 -66 145 -59 l53 6 -3 -112 -3
-112 -80 -16 c-103 -22 -236 -24 -304 -3 -96 28 -172 124 -187 237 -4 26 -9
47 -13 47 -3 -1 -22 -26 -41 -57 -43 -68 -129 -149 -197 -186 -157 -85 -410
-89 -556 -9 -142 77 -217 221 -217 417 0 208 82 350 252 432 109 53 171 64
452 76 l258 11 -4 105 c-4 127 -34 207 -90 240 -53 33 -134 46 -198 32 -91
-18 -139 -69 -161 -167 l-13 -56 -55 6 c-31 3 -127 8 -214 12 l-158 6 7 32
c50 235 217 379 492 426 70 11 268 11 341 0z"/>
<path d="M12133 6816 c-119 -30 -191 -117 -233 -282 -37 -146 -35 -381 4 -514
56 -187 171 -281 326 -267 209 19 303 187 303 542 0 232 -31 355 -113 449 -61
69 -180 99 -287 72z"/>
<path d="M3170 6224 c-97 -14 -131 -27 -173 -64 -56 -49 -71 -100 -65 -208 8
-136 65 -192 194 -192 191 0 334 170 334 398 l0 72 -132 -1 c-73 -1 -144 -3
-158 -5z"/>
<path d="M7643 6825 c-62 -31 -97 -71 -129 -141 -22 -50 -44 -145 -44 -191 l0
-23 306 0 307 0 -6 60 c-14 131 -80 248 -166 291 -35 18 -66 25 -131 27 -76 3
-91 0 -137 -23z"/>
<path d="M13818 6219 c-141 -21 -208 -97 -208 -237 0 -82 13 -127 49 -165 40
-44 73 -57 149 -57 128 0 232 74 295 209 27 56 32 80 35 164 l4 97 -133 -1
c-74 -1 -160 -5 -191 -10z"/>
</g>
</svg>
